<svg width="120" height="120" viewBox="0 0 120 120" fill="none" xmlns="http://www.w3.org/2000/svg">
  <!-- Escudo del Estado La Guaira -->
  <defs>
    <linearGradient id="blueGrad" x1="0%" y1="0%" x2="0%" y2="100%">
      <stop offset="0%" style="stop-color:#0052D9;stop-opacity:1" />
      <stop offset="100%" style="stop-color:#003DA5;stop-opacity:1" />
    </linearGradient>
  </defs>
  
  <!-- Fondo del escudo -->
  <path d="M60 10 L100 30 L100 80 Q100 95 85 100 L60 110 L35 100 Q20 95 20 80 L20 30 Z" fill="url(#blueGrad)" stroke="#002B73" stroke-width="2"/>
  
  <!-- Estrella central (símbolo de Venezuela) -->
  <path d="M60 35 L63 45 L73 45 L65 51 L68 61 L60 55 L52 61 L55 51 L47 45 L57 45 Z" fill="#FFCC00" stroke="#FFA500" stroke-width="1"/>
  
  <!-- Olas del mar (La Guaira es costera) -->
  <path d="M30 70 Q35 65 40 70 Q45 75 50 70 Q55 65 60 70 Q65 75 70 70 Q75 65 80 70 Q85 75 90 70" stroke="#FFFFFF" stroke-width="2" fill="none" opacity="0.8"/>
  <path d="M30 78 Q35 73 40 78 Q45 83 50 78 Q55 73 60 78 Q65 83 70 78 Q75 73 80 78 Q85 83 90 78" stroke="#FFFFFF" stroke-width="2" fill="none" opacity="0.6"/>
  
  <!-- Montañas (Ávila) -->
  <path d="M35 55 L45 40 L55 50 L65 38 L75 48 L85 55 Z" fill="#FFFFFF" opacity="0.3"/>
  
  <!-- Borde decorativo -->
  <circle cx="60" cy="60" r="56" stroke="#FFCC00" stroke-width="1" fill="none" opacity="0.3"/>
</svg>
